<?xml version="1.0" encoding="utf-8"?>
<!DOCTYPE svg PUBLIC "-//W3C//DTD SVG 1.1//EN" "http://www.w3.org/Graphics/SVG/1.1/DTD/svg11.dtd">
<svg xmlns="http://www.w3.org/2000/svg" xmlns:xlink="http://www.w3.org/1999/xlink" version="1.1" baseProfile="full" width="999.999" height="1000" viewBox="0 0 1000.00 1000.00" enable-background="new 0 0 1000.00 1000.00" xml:space="preserve">
	<path fill="#2185D0" fill-opacity="1" stroke-width="0.2" stroke-linejoin="round" d="M 623.86,361.594C 595.315,377.625 560.485,396.056 541.233,405.926L 489.821,429.472L 515.271,429.472C 552.085,414.385 560.61,410.384 571.165,405.344C 596.252,393.366 632.811,375.517 667.73,357.577C 702.65,339.636 735.931,321.605 765.466,304.665C 795.001,287.724 820.79,271.875 842.329,257.842C 863.868,243.81 881.157,231.596 899.238,216.764C 917.319,201.932 936.192,184.482 950.888,169.068C 965.584,153.655 976.101,140.277 983.593,128.353C 991.085,116.429 995.551,105.96 997.928,95.1993C 1000.31,84.4388 1000.59,73.3876 999.369,63.5723C 998.144,53.757 995.407,45.1777 991.013,37.7617C 986.618,30.3457 980.567,24.0929 972.932,19.0762C 965.296,14.0596 956.075,10.2788 944.549,7.22522C 933.023,4.17151 919.192,1.84485 902.479,0.754395C 885.767,-0.336304 866.173,-0.190796 844.851,0.827026C 823.527,1.84485 800.476,3.73535 764.278,9.37012C 728.081,15.0049 678.738,24.3839 595.573,45.1415L 160.447,172.531C 393.533,113.183 445.64,100.139 492.018,89.7721C 580.116,70.0795 647.542,60.046 699.192,55.2474C 750.843,50.4489 786.717,50.8851 813.298,55.6836C 839.88,60.4823 857.169,69.6432 867.038,77.568C 876.906,85.493 879.356,92.1821 879.681,102.579C 880.004,112.976 878.203,127.081 870.207,144.676C 862.211,162.271 848.021,183.355 831.992,202.55C 815.964,221.744 798.099,239.048 775.28,258.024C 752.464,277 724.693,297.649 699.679,314.789C 674.664,331.93 652.404,345.562 623.86,361.594 Z "/>
	<path fill="#E77817" fill-opacity="1" stroke-width="0.2" stroke-linejoin="round" d="M 489.821,425.519L 307.296,508.344C 419.624,463.9 480.248,439.739 515.271,425.519L 489.821,425.519 Z "/>
	<path fill="#E77817" fill-opacity="1" stroke-width="0.2" stroke-linejoin="round" d="M 431.118,531.819C 472.864,521.373 496.636,514.602 547.277,498.826L 757.572,425.519L 744.431,425.519C 695.142,440.463 676.155,446.073 654.937,452.074C 617.874,462.555 574.003,474.225 538.453,483.302C 502.903,492.379 475.673,498.862 448.659,504.805C 421.646,510.748 394.849,516.151 368.591,520.365C 342.333,524.579 316.616,527.604 288.09,529.441C 259.563,531.278 228.228,531.927 206.725,531.17C 185.222,530.414 173.552,528.253 164.097,525.659C 154.642,523.066 147.402,520.041 141.459,516.637C 135.517,513.233 130.87,509.451 127.196,503.832C 123.522,498.214 120.821,490.758 119.767,483.032C 118.714,475.306 119.308,467.31 120.316,461.493C 121.325,455.676 122.747,452.038 126.052,444.312C 128.113,439.494 130.906,433.085 134.954,425.519L 41.3545,425.519C 36.085,431.514 31.2549,437.429 27.0293,443.105C 16.0068,457.909 9.0918,471.091 4.87793,484.814C 0.663086,498.537 -0.848633,512.801 0.447266,524.363C 1.74414,535.924 5.85059,544.785 11.6846,552.781C 17.5205,560.777 25.084,567.909 35.9971,573.528C 46.9111,579.146 61.1748,583.253 77.5986,585.414C 94.0225,587.575 112.608,587.791 133.247,587.034C 153.886,586.278 176.577,584.549 199.7,581.632C 222.825,578.714 246.381,574.608 288.018,565.495C 329.655,556.383 389.373,542.264 431.118,531.819 Z "/>
	<path fill="#2185D0" fill-opacity="1" stroke-width="0.2" stroke-linejoin="round" d="M 757.572,425.519L 847.403,394.205C 802.393,407.908 769.494,417.92 744.431,425.519L 757.572,425.519 Z "/>
	<path fill="#2185D0" fill-opacity="1" stroke-width="0.2" stroke-linejoin="round" d="M 41.3545,425.519L 134.954,425.519C 137.396,420.953 140.294,415.966 143.765,410.653C 152.985,396.534 166.239,380.109 180.791,364.55C 195.343,348.99 211.19,334.294 238.564,312.971C 265.938,291.648 304.839,263.698 347.772,236.756C 390.706,209.815 437.674,183.882 487.214,158.355L 657.835,72.9567C 541.957,123.073 439.583,170.411 405.653,187.051C 371.724,203.692 344.494,217.667 309.7,236.936C 274.907,256.206 232.55,280.771 199.809,301.049C 167.068,321.327 143.944,337.319 123.63,352.339C 103.315,367.359 85.8115,381.406 69.4951,396.642C 59.4346,406.035 49.8271,415.88 41.3545,425.519 Z "/>
	<g>
		<path fill="#000000" fill-opacity="1" stroke-width="0.2" stroke-linejoin="round" d="M 265.337,963.719C 266.842,963.719 268.186,964.331 269.368,965.557L 280.301,977.941C 274.238,985.057 266.788,990.513 257.952,994.308C 249.115,998.102 238.505,1000 226.121,1000C 215.049,1000 205.089,998.108 196.241,994.324C 187.395,990.54 179.843,985.267 173.586,978.505C 167.329,971.743 162.53,963.681 159.187,954.318C 155.843,944.954 154.172,934.726 154.172,923.632C 154.172,912.409 155.962,902.127 159.541,892.785C 163.121,883.443 168.163,875.397 174.667,868.646C 181.17,861.895 188.927,856.643 197.935,852.892C 206.943,849.14 216.919,847.264 227.862,847.264C 238.741,847.264 248.396,848.984 256.823,852.424C 265.251,855.864 272.421,860.368 278.334,865.937L 269.046,878.869C 268.487,879.686 267.777,880.406 266.917,881.03C 266.058,881.653 264.875,881.965 263.37,881.965C 262.338,881.965 261.273,881.669 260.177,881.078C 259.081,880.487 257.876,879.75 256.565,878.869C 255.254,877.987 253.737,877.02 252.018,875.966C 250.298,874.913 248.304,873.945 246.036,873.064C 243.768,872.182 241.134,871.446 238.134,870.855C 235.135,870.264 231.679,869.968 227.766,869.968C 221.101,869.968 214.995,871.177 209.448,873.596C 203.901,876.015 199.134,879.519 195.146,884.11C 191.157,888.7 188.062,894.306 185.857,900.928C 183.653,907.55 182.552,915.096 182.552,923.567C 182.552,932.124 183.739,939.73 186.115,946.384C 188.491,953.038 191.71,958.645 195.774,963.203C 199.837,967.76 204.621,971.249 210.125,973.668C 215.629,976.086 221.542,977.296 227.862,977.296C 231.646,977.296 235.07,977.086 238.134,976.667C 241.198,976.248 244.021,975.581 246.6,974.667C 249.18,973.754 251.62,972.576 253.921,971.136C 256.222,969.696 258.511,967.922 260.79,965.815C 261.478,965.191 262.198,964.686 262.95,964.299C 263.703,963.912 264.499,963.719 265.337,963.719 Z "/>
		<path fill="#000000" fill-opacity="1" stroke-width="0.2" stroke-linejoin="round" d="M 401.562,963.719C 403.065,963.719 404.409,964.331 405.593,965.557L 416.524,977.941C 410.462,985.057 403.013,990.513 394.176,994.308C 385.339,998.102 374.729,1000 362.345,1000C 351.272,1000 341.313,998.108 332.466,994.324C 323.618,990.54 316.066,985.267 309.81,978.505C 303.554,971.743 298.754,963.681 295.41,954.318C 292.067,944.954 290.396,934.726 290.396,923.632C 290.396,912.409 292.186,902.127 295.765,892.785C 299.345,883.443 304.387,875.397 310.891,868.646C 317.394,861.895 325.15,856.643 334.159,852.892C 343.167,849.14 353.144,847.264 364.087,847.264C 374.966,847.264 384.619,848.984 393.047,852.424C 401.476,855.864 408.646,860.368 414.558,865.937L 405.27,878.869C 404.711,879.686 404.001,880.406 403.142,881.03C 402.281,881.653 401.099,881.965 399.594,881.965C 398.562,881.965 397.497,881.669 396.401,881.078C 395.305,880.487 394.101,879.75 392.789,878.869C 391.478,877.987 389.962,877.02 388.241,875.966C 386.522,874.913 384.528,873.945 382.26,873.064C 379.991,872.182 377.357,871.446 374.358,870.855C 371.358,870.264 367.903,869.968 363.989,869.968C 357.325,869.968 351.219,871.177 345.672,873.596C 340.125,876.015 335.357,879.519 331.369,884.11C 327.381,888.7 324.285,894.306 322.081,900.928C 319.878,907.55 318.775,915.096 318.775,923.567C 318.775,932.124 319.964,939.73 322.339,946.384C 324.715,953.038 327.935,958.645 331.998,963.203C 336.062,967.76 340.845,971.249 346.349,973.668C 351.853,976.086 357.766,977.296 364.087,977.296C 367.87,977.296 371.294,977.086 374.358,976.667C 377.422,976.248 380.244,975.581 382.823,974.667C 385.403,973.754 387.845,972.576 390.145,971.136C 392.445,969.696 394.735,967.922 397.014,965.815C 397.702,965.191 398.422,964.686 399.175,964.299C 399.927,963.912 400.723,963.719 401.562,963.719 Z "/>
		<path fill="#000000" fill-opacity="1" stroke-width="0.2" stroke-linejoin="round" d="M 539.526,872.032L 494.538,872.032L 494.538,997.936L 466.771,997.936L 466.771,872.032L 421.782,872.032L 421.782,849.328L 539.526,849.328L 539.526,872.032 Z "/>
		<path fill="#000000" fill-opacity="1" stroke-width="0.2" stroke-linejoin="round" d="M 623.344,933.952C 623.344,930.555 622.876,927.357 621.94,924.357C 621.006,921.358 619.608,918.73 617.749,916.472C 615.889,914.215 613.534,912.436 610.686,911.135C 607.837,909.834 604.521,909.184 600.736,909.184C 593.362,909.184 587.563,911.334 583.338,915.634C 579.113,919.934 576.409,926.04 575.228,933.952L 623.344,933.952 Z M 574.711,948.4C 575.141,954.076 576.108,958.983 577.613,963.122C 579.118,967.261 581.112,970.679 583.596,973.377C 586.079,976.076 589.024,978.091 592.433,979.424C 595.84,980.757 599.608,981.424 603.735,981.424C 607.864,981.424 611.422,980.924 614.411,979.924C 617.399,978.924 620.011,977.812 622.247,976.586C 624.483,975.361 626.445,974.248 628.133,973.248C 629.821,972.249 631.449,971.749 633.019,971.749C 635.169,971.749 636.76,972.566 637.792,974.2L 645.112,983.778C 642.296,986.874 639.13,989.465 635.614,991.55C 632.1,993.636 628.434,995.307 624.618,996.565C 620.802,997.823 616.915,998.71 612.96,999.226C 609.003,999.742 605.165,1000 601.446,1000C 594.093,1000 587.251,998.774 580.919,996.323C 574.587,993.872 569.083,990.25 564.407,985.455C 559.731,980.66 556.049,974.727 553.361,967.653C 550.674,960.58 549.33,952.388 549.33,943.079C 549.33,935.833 550.502,929.018 552.846,922.632C 555.188,916.247 558.543,910.694 562.907,905.975C 567.272,901.256 572.604,897.515 578.903,894.752C 585.203,891.989 592.309,890.608 600.221,890.608C 606.886,890.608 613.04,891.672 618.684,893.801C 624.327,895.929 629.181,899.041 633.245,903.137C 637.308,907.233 640.49,912.258 642.79,918.214C 645.091,924.169 646.241,930.963 646.241,938.596C 646.241,942.444 645.827,945.04 644.999,946.384C 644.172,947.728 642.586,948.4 640.243,948.4L 574.711,948.4 Z "/>
		<path fill="#000000" fill-opacity="1" stroke-width="0.2" stroke-linejoin="round" d="M 740.347,914.086C 739.594,915.053 738.857,915.811 738.138,916.36C 737.417,916.908 736.369,917.182 734.993,917.182C 733.682,917.182 732.407,916.773 731.171,915.956C 729.935,915.139 728.457,914.215 726.737,913.183C 725.017,912.151 722.969,911.226 720.593,910.409C 718.218,909.592 715.277,909.184 711.772,909.184C 707.301,909.184 703.377,910.017 700.002,911.683C 696.626,913.35 693.82,915.736 691.585,918.843C 689.349,921.949 687.683,925.712 686.586,930.13C 685.489,934.549 684.94,939.553 684.94,945.143C 684.94,950.948 685.543,956.113 686.747,960.639C 687.951,965.164 689.687,968.965 691.955,972.039C 694.224,975.114 696.976,977.446 700.212,979.037C 703.447,980.628 707.097,981.424 711.16,981.424C 715.224,981.424 718.508,980.913 721.013,979.892C 723.518,978.871 725.63,977.747 727.35,976.522C 729.069,975.296 730.569,974.173 731.849,973.152C 733.128,972.13 734.552,971.62 736.122,971.62C 738.186,971.62 739.733,972.426 740.766,974.039L 748.087,983.488C 745.27,986.627 742.212,989.26 738.911,991.389C 735.61,993.518 732.187,995.221 728.64,996.501C 725.093,997.78 721.448,998.683 717.707,999.21C 713.966,999.736 710.235,1000 706.517,1000C 699.98,1000 693.82,998.774 688.037,996.323C 682.253,993.872 677.195,990.303 672.863,985.616C 668.531,980.929 665.107,975.189 662.592,968.395C 660.076,961.601 658.818,953.85 658.818,945.143C 658.818,937.36 659.937,930.136 662.173,923.471C 664.408,916.806 667.698,911.044 672.041,906.185C 676.384,901.326 681.754,897.515 688.149,894.752C 694.546,891.989 701.904,890.608 710.225,890.608C 718.137,890.608 725.07,891.833 731.026,894.284C 736.981,896.735 742.324,900.24 747.054,904.798L 740.347,914.086 Z "/>
		<path fill="#000000" fill-opacity="1" stroke-width="0.2" stroke-linejoin="round" d="M 789.076,902.831C 793.204,899.219 797.746,896.279 802.702,894.01C 807.657,891.742 813.468,890.608 820.133,890.608C 825.917,890.608 831.044,891.586 835.517,893.543C 839.988,895.499 843.719,898.246 846.707,901.783C 849.695,905.319 851.964,909.544 853.512,914.457C 855.06,919.369 855.834,924.771 855.834,930.662L 855.834,997.936L 830.356,997.936L 830.356,929.759C 830.356,923.202 828.878,918.133 825.922,914.554C 822.966,910.974 818.456,909.184 812.394,909.184C 807.985,909.184 803.857,910.286 800.009,912.49C 796.161,914.693 792.517,917.698 789.076,921.503L 789.076,997.936L 763.567,997.936L 763.567,845.2L 789.076,845.2L 789.076,902.831 Z "/>
	</g>
	<g>
		<path fill="#000000" fill-opacity="1" stroke-width="0.2" stroke-linejoin="round" d="M 867.317,740.492C 869.673,740.492 871.726,740.196 873.476,739.605C 875.226,739.014 876.667,738.199 877.802,737.162C 878.936,736.125 879.781,734.894 880.339,733.469C 880.896,732.044 881.175,730.478 881.175,728.772C 881.175,725.36 880.051,722.737 877.802,720.905C 875.553,719.073 872.116,718.157 867.492,718.157L 859.495,718.157L 859.495,740.492L 867.317,740.492 Z M 899.511,775.855L 888.198,775.855C 886.065,775.855 884.515,774.997 883.545,773.282L 869.411,751.165C 868.878,750.331 868.294,749.74 867.659,749.391C 867.024,749.042 866.087,748.867 864.846,748.867L 859.495,748.867L 859.495,775.855L 846.975,775.855L 846.975,708.851L 867.492,708.851C 872.058,708.851 875.977,709.314 879.248,710.24C 882.521,711.165 885.203,712.464 887.297,714.137C 889.391,715.809 890.935,717.806 891.928,720.127C 892.922,722.449 893.419,725.011 893.419,727.812C 893.419,730.032 893.084,732.128 892.415,734.101C 891.746,736.074 890.784,737.865 889.528,739.474C 888.273,741.083 886.722,742.496 884.876,743.713C 883.028,744.929 880.928,745.887 878.572,746.585C 879.377,747.06 880.12,747.619 880.804,748.264C 881.487,748.909 882.11,749.677 882.673,750.569L 899.511,775.855 Z "/>
	</g>
	<path fill="#E77817" fill-opacity="1" stroke-width="0.2" stroke-linejoin="round" d="M 492.648,723.957C 510.552,723.957 525.065,597.455 525.065,441.408C 525.065,436.076 525.048,430.778 525.015,425.519L 460.282,425.519C 460.249,430.778 460.232,436.076 460.232,441.408C 460.232,597.455 474.745,723.957 492.648,723.957 Z "/>
	<path fill="#2185D0" fill-opacity="1" stroke-width="0.2" stroke-linejoin="round" d="M 460.282,425.519L 525.015,425.519C 524.069,276.863 509.94,158.859 492.648,158.859C 475.357,158.859 461.228,276.863 460.282,425.519 Z "/>
	<path fill="#000000" fill-opacity="1" stroke-width="0.2" stroke-linejoin="round" d="M 869.84,676.753C 906.291,676.753 935.84,706.302 935.84,742.753C 935.84,779.204 906.291,808.753 869.84,808.753C 833.39,808.753 803.84,779.204 803.84,742.753C 803.84,706.302 833.39,676.753 869.84,676.753 Z M 869.84,684.657C 837.755,684.657 811.744,710.668 811.744,742.753C 811.744,774.839 837.755,800.849 869.84,800.849C 901.926,800.849 927.937,774.839 927.937,742.753C 927.937,710.668 901.926,684.657 869.84,684.657 Z "/>
</svg>
